<svg width="32" height="32" viewBox="0 0 32 32" xmlns="http://www.w3.org/2000/svg">
  <path d="M 28 18.8197L 28 19.8197C 28.2899 19.8197 28.5655 19.6939 28.7555 19.4749C 28.9454 19.2559 29.0309 18.9652 28.9899 18.6783L 28 18.8197ZM 0 18.8197L -0.987763 18.6637C -1.03338 18.9526 -0.950241 19.247 -0.760251 19.4693C -0.570261 19.6916 -0.292459 19.8197 0 19.8197L 0 18.8197ZM 2.7541 1.37705L 1.80542 1.06082C 1.788 1.11308 1.77493 1.16668 1.76634 1.22109L 2.7541 1.37705ZM 4.13115 1L 23.4098 1L 23.4098 -1L 4.13115 -1L 4.13115 1ZM 23.4098 1C 23.474 1 23.6662 1.02757 23.8602 1.1402C 24.0315 1.2397 24.1998 1.40095 24.2972 1.69328L 26.1946 1.06082C 25.6437 -0.591951 24.1267 -1 23.4098 -1L 23.4098 1ZM 24.2972 1.69328C 24.3188 1.7581 24.373 1.98374 24.4567 2.41415C 24.5355 2.81918 24.6304 3.35077 24.7377 3.98173C 24.9521 5.2426 25.2122 6.88047 25.4854 8.65542C 26.0317 12.2042 26.6279 16.2857 27.01 18.9611L 28.9899 18.6783C 28.6071 15.9985 28.0099 11.9094 27.4621 8.35114C 27.1884 6.57253 26.9264 4.9227 26.7094 3.64655C 26.601 3.00899 26.5031 2.45974 26.4199 2.03222C 26.3417 1.63006 26.2648 1.27141 26.1946 1.06082L 24.2972 1.69328ZM 28 17.8197L 0 17.8197L 0 19.8197L 28 19.8197L 28 17.8197ZM 0.987763 18.9756L 3.74186 1.53301L 1.76634 1.22109L -0.987763 18.6637L 0.987763 18.9756ZM 3.70278 1.69328C 3.75005 1.55146 3.8592 1.32097 4.00039 1.14738C 4.15508 0.957182 4.20537 1 4.13115 1L 4.13115 -1C 3.32249 -1 2.76077 -0.498166 2.44879 -0.114589C 2.12332 0.285585 1.91115 0.743619 1.80542 1.06082L 3.70278 1.69328Z"/>
  <path d="M 3.67213 1.83607C 3.67213 2.8501 2.85009 3.67213 1.83606 3.67213C 0.822034 3.67213 0 2.8501 0 1.83607C 0 0.822035 0.822034 0 1.83606 0C 2.85009 0 3.67213 0.822035 3.67213 1.83607Z"/>
  <path d="M 1.67213 1.83607C 1.67213 1.74553 1.74552 1.67213 1.83606 1.67213L 1.83606 5.67213C 3.95467 5.67213 5.67213 3.95466 5.67213 1.83607L 1.67213 1.83607ZM 1.83606 1.67213C 1.9266 1.67213 2 1.74553 2 1.83607L -2 1.83607C -2 3.95466 -0.282537 5.67213 1.83606 5.67213L 1.83606 1.67213ZM 2 1.83607C 2 1.9266 1.9266 2 1.83606 2L 1.83606 -2C -0.282537 -2 -2 -0.282533 -2 1.83607L 2 1.83607ZM 1.83606 2C 1.74552 2 1.67213 1.9266 1.67213 1.83607L 5.67213 1.83607C 5.67213 -0.282533 3.95467 -2 1.83606 -2L 1.83606 2Z"/>
  <path d="M 3.67213 1.83607C 3.67213 2.8501 2.8501 3.67213 1.83607 3.67213C 0.822035 3.67213 0 2.8501 0 1.83607C 0 0.822035 0.822035 0 1.83607 0C 2.8501 0 3.67213 0.822035 3.67213 1.83607Z"/>
  <path d="M 1.67213 1.83607C 1.67213 1.74553 1.74553 1.67213 1.83607 1.67213L 1.83607 5.67213C 3.95467 5.67213 5.67213 3.95467 5.67213 1.83607L 1.67213 1.83607ZM 1.83607 1.67213C 1.9266 1.67213 2 1.74553 2 1.83607L -2 1.83607C -2 3.95467 -0.282534 5.67213 1.83607 5.67213L 1.83607 1.67213ZM 2 1.83607C 2 1.9266 1.9266 2 1.83607 2L 1.83607 -2C -0.282534 -2 -2 -0.282535 -2 1.83607L 2 1.83607ZM 1.83607 2C 1.74553 2 1.67213 1.9266 1.67213 1.83607L 5.67213 1.83607C 5.67213 -0.282535 3.95467 -2 1.83607 -2L 1.83607 2Z"/>
  <path d="M 0.015887 4.59016L 1.01589 4.59016L 1.01589 4.54029L 1.01092 4.49066L 0.015887 4.59016ZM 11.0323 4.59016L 10.0373 4.49067L 10.0323 4.54029L 10.0323 4.59016L 11.0323 4.59016ZM 1.01589 13.7705L 1.01589 4.59016L -0.984113 4.59016L -0.984113 13.7705L 1.01589 13.7705ZM 1.01092 4.49066C 0.956198 3.9434 1.09231 3.07723 1.68966 2.3627C 2.25836 1.68244 3.3634 1 5.52408 1L 5.52408 -1C 2.91099 -1 1.18544 -0.152383 0.15523 1.07992C -0.846328 2.27796 -1.07743 3.70687 -0.97915 4.68967L 1.01092 4.49066ZM 5.52408 1C 7.68476 1 8.78982 1.68244 9.35852 2.36271C 9.95588 3.07724 10.092 3.94341 10.0373 4.49067L 12.0273 4.68966C 12.1256 3.70686 11.8945 2.27795 10.8929 1.07992C 9.86274 -0.152383 8.13718 -1 5.52408 -1L 5.52408 1ZM 10.0323 4.59016L 10.0323 13.7705L 12.0323 13.7705L 12.0323 4.59016L 10.0323 4.59016Z"/>
</svg>
