<svg width="32" height="32" viewBox="0 0 32 32" xmlns="http://www.w3.org/2000/svg">
  <path d="M5.727 12.807L3.17 29h25.676c-.376-2.614-.887-6.089-1.36-9.164a320.353 320.353 0 0 0-.748-4.674 70.106 70.106 0 0 0-.281-1.568 8.507 8.507 0 0 0-.16-.72.955.955 0 0 0-.437-.554 1.023 1.023 0 0 0-.45-.14H6.156a.58.58 0 0 0-.156.148c-.12.148-.218.338-.273.479zm.438-.63h-.002zm-1.716-1.111c.312-.384.873-.886 1.682-.886H25.41c.717 0 2.234.408 2.785 2.061.07.21.147.57.225.972.083.427.181.976.29 1.614.216 1.276.478 2.926.752 4.705a1046.71 1046.71 0 0 1 1.528 10.327A1 1 0 0 1 30 31H2a1 1 0 0 1-.988-1.156l2.754-17.443c.009-.054.022-.108.04-.16.105-.317.317-.775.643-1.175z"/>
  <path d="M11.257 6.49a2.984 2.984 0 0 1 .679-2.127C12.505 3.683 13.61 3 15.771 3c2.16 0 3.265.682 3.834 1.363.597.714.733 1.58.679 2.128l-.005.05v7.69a1.836 1.836 0 1 0 2 0V6.635a4.986 4.986 0 0 0-1.14-3.556C20.11 1.848 18.384 1 15.771 1c-2.614 0-4.34.848-5.37 2.08a4.986 4.986 0 0 0-1.139 3.556v7.594a1.835 1.835 0 0 0 1 3.377 1.836 1.836 0 0 0 1-3.377V6.54l-.005-.05z"/>
</svg>
